<svg width="256" height="256" viewBox="0 0 256 256" fill="none" xmlns="http://www.w3.org/2000/svg">
<path fill-rule="evenodd" clip-rule="evenodd" d="M141.772 41.1651C137.92 53.1579 124.918 59.3311 112.325 59.6177C105.657 59.7694 99.0073 60.8984 92.5917 63.004C78.889 67.5013 66.9589 76.2233 58.5094 87.9213C50.0598 99.6194 45.524 113.694 45.5513 128.13C45.5787 142.565 50.1676 156.622 58.6614 168.288C67.1551 179.954 79.1181 188.631 92.8378 193.076C106.557 197.522 121.33 197.508 135.041 193.036C148.753 188.565 160.699 179.866 169.171 168.184C173.149 162.698 176.265 156.687 178.452 150.358C182.559 138.469 192.402 128 204.98 128C217.559 128 227.985 138.296 225.491 150.625C222.27 166.547 215.669 181.685 206.033 194.973C191.913 214.443 172.002 228.942 149.15 236.394C126.298 243.846 101.677 243.869 78.8109 236.46C55.9448 229.052 36.0065 214.59 21.8503 195.147C7.69404 175.704 0.0457142 152.275 0.000204281 128.216C-0.0453056 104.156 7.51433 80.699 21.5969 61.2022C35.6795 41.7054 55.5629 27.1688 78.4008 19.6733C93.9771 14.5611 110.383 12.9031 126.5 14.7023C139.008 16.0986 145.621 29.1829 141.772 41.1651Z" fill="white"/>
<path d="M187.922 56.8064C191.327 49.926 200.896 49.3164 205.145 55.7091L254.318 129.682C258.567 136.075 254.31 144.675 246.655 145.163L158.075 150.806C150.42 151.294 145.108 143.303 148.514 136.423L187.922 56.8064Z" fill="white"/>
</svg>
